<svg xmlns="http://www.w3.org/2000/svg" width="1200" height="1200" viewBox="0 0 1200 1200" role="img" aria-label="商品占位图 4">
  <defs>
    <linearGradient id="bg" x1="0" y1="0" x2="1" y2="1">
      <stop offset="0" stop-color="#26A69A"/>
      <stop offset="1" stop-color="#004D40"/>
    </linearGradient>
    <radialGradient id="hl" cx="30%" cy="25%" r="60%">
      <stop offset="0" stop-color="#FFFFFF" stop-opacity="0.75"/>
      <stop offset="1" stop-color="#FFFFFF" stop-opacity="0"/>
    </radialGradient>
    <filter id="blur" x="-30%" y="-30%" width="160%" height="160%">
      <feGaussianBlur stdDeviation="26"/>
    </filter>
  </defs>
  <rect width="1200" height="1200" rx="64" fill="url(#bg)"/>
  <circle cx="360" cy="280" r="360" fill="url(#hl)" filter="url(#blur)"/>
  <circle cx="900" cy="980" r="460" fill="rgba(255,152,0,0.18)" filter="url(#blur)"/>
  <g transform="translate(240 220)">
    <rect x="0" y="0" width="720" height="760" rx="44" fill="rgba(255,255,255,0.10)" stroke="rgba(255,255,255,0.18)"/>
    <path d="M210 420c0-118 82-214 150-214s150 96 150 214v140c0 30-24 50-60 50H270c-36 0-60-20-60-50V420z"
          fill="rgba(255,255,255,0.9)"/>
    <circle cx="330" cy="360" r="14" fill="#263238"/>
    <circle cx="450" cy="360" r="14" fill="#263238"/>
    <path d="M350 460c28 28 92 28 120 0" fill="none" stroke="#263238" stroke-width="14" stroke-linecap="round"/>
    <text x="50%" y="92%" text-anchor="middle" font-family="system-ui, -apple-system, Segoe UI, Roboto, Noto Sans SC, Arial" font-size="34"
          fill="rgba(255,255,255,0.72)">FIGURINE</text>
  </g>
</svg>

