<svg xmlns="http://www.w3.org/2000/svg" width="1600" height="1000" viewBox="0 0 1600 1000" role="img" aria-label="品牌理念配图占位">
  <defs>
    <linearGradient id="bg" x1="0" y1="0" x2="1" y2="1">
      <stop offset="0" stop-color="#0E2A33"/>
      <stop offset="1" stop-color="#0A141C"/>
    </linearGradient>
    <radialGradient id="glow" cx="30%" cy="35%" r="60%">
      <stop offset="0" stop-color="#00BCD4" stop-opacity="0.65"/>
      <stop offset="1" stop-color="#00BCD4" stop-opacity="0"/>
    </radialGradient>
    <radialGradient id="glow2" cx="75%" cy="70%" r="55%">
      <stop offset="0" stop-color="#FF9800" stop-opacity="0.55"/>
      <stop offset="1" stop-color="#FF9800" stop-opacity="0"/>
    </radialGradient>
    <filter id="blur" x="-30%" y="-30%" width="160%" height="160%">
      <feGaussianBlur stdDeviation="40"/>
    </filter>
  </defs>
  <rect width="1600" height="1000" rx="48" fill="url(#bg)"/>
  <circle cx="440" cy="380" r="420" fill="url(#glow)" filter="url(#blur)"/>
  <circle cx="1180" cy="680" r="380" fill="url(#glow2)" filter="url(#blur)"/>
  <g fill="none" stroke="rgba(255,255,255,0.16)" stroke-width="2">
    <path d="M220 720 C 480 560, 640 800, 900 640 C 1120 500, 1320 620, 1460 520"/>
    <path d="M220 780 C 500 640, 680 880, 960 720 C 1200 580, 1380 700, 1460 620"/>
  </g>
  <g transform="translate(240 170)">
    <rect x="0" y="0" width="520" height="520" rx="36" fill="rgba(255,255,255,0.10)" stroke="rgba(255,255,255,0.18)"/>
    <path d="M148 302c0-76 52-138 112-138s112 62 112 138v72c0 18-14 30-34 30H182c-20 0-34-12-34-30v-72z"
          fill="rgba(255,255,255,0.88)"/>
    <circle cx="220" cy="254" r="10" fill="#263238"/>
    <circle cx="300" cy="254" r="10" fill="#263238"/>
    <path d="M230 312c18 18 52 18 70 0" stroke="#263238" stroke-width="10" stroke-linecap="round"/>
  </g>
</svg>

