<?xml version="1.0" encoding="UTF-8"?>
<!--
  Shouwban Icon Sprite (local)
  - No runtime CDN dependency
  - Optimized for UI (stroke-based, 24x24)
  - Usage:
      <svg class="icon" aria-hidden="true" focusable="false">
        <use href="assets/icons.svg#icon-search" xlink:href="assets/icons.svg#icon-search"></use>
      </svg>
-->
<svg xmlns="http://www.w3.org/2000/svg" style="display:none" aria-hidden="true">
  <symbol id="icon-chevron-down" viewBox="0 0 24 24">
    <path d="M6 9l6 6 6-6" fill="none" stroke="currentColor" stroke-width="2" stroke-linecap="round" stroke-linejoin="round"/>
  </symbol>

  <symbol id="icon-search" viewBox="0 0 24 24">
    <circle cx="11" cy="11" r="6.5" fill="none" stroke="currentColor" stroke-width="2"/>
    <path d="M16.5 16.5L21 21" fill="none" stroke="currentColor" stroke-width="2" stroke-linecap="round"/>
  </symbol>

  <symbol id="icon-x" viewBox="0 0 24 24">
    <path d="M6 6l12 12M18 6L6 18" fill="none" stroke="currentColor" stroke-width="2" stroke-linecap="round"/>
  </symbol>

  <symbol id="icon-moon" viewBox="0 0 24 24">
    <path d="M21 13.3A8.4 8.4 0 0 1 10.7 3 7.5 7.5 0 1 0 21 13.3z" fill="none" stroke="currentColor" stroke-width="2" stroke-linejoin="round"/>
  </symbol>

  <symbol id="icon-sun" viewBox="0 0 24 24">
    <circle cx="12" cy="12" r="4.25" fill="none" stroke="currentColor" stroke-width="2"/>
    <path d="M12 2.5v2.5M12 19v2.5M2.5 12H5M19 12h2.5M4.1 4.1l1.8 1.8M18.1 18.1l1.8 1.8M19.9 4.1l-1.8 1.8M5.9 18.1l-1.8 1.8"
          fill="none" stroke="currentColor" stroke-width="2" stroke-linecap="round"/>
  </symbol>

  <symbol id="icon-heart" viewBox="0 0 24 24">
    <path d="M12 21s-7.2-4.3-9.5-9A5.6 5.6 0 0 1 12 5a5.6 5.6 0 0 1 9.5 7c-2.3 4.7-9.5 9-9.5 9z"
          fill="none" stroke="currentColor" stroke-width="2" stroke-linejoin="round"/>
  </symbol>

  <symbol id="icon-heart-filled" viewBox="0 0 24 24">
    <path d="M12 21s-7.2-4.3-9.5-9A5.6 5.6 0 0 1 12 5a5.6 5.6 0 0 1 9.5 7c-2.3 4.7-9.5 9-9.5 9z" fill="currentColor"/>
  </symbol>

  <symbol id="icon-cart" viewBox="0 0 24 24">
    <path d="M6.5 6.5h14l-1.4 8.2a2 2 0 0 1-2 1.6H9.2a2 2 0 0 1-2-1.6L5.4 3.5H2.5"
          fill="none" stroke="currentColor" stroke-width="2" stroke-linecap="round" stroke-linejoin="round"/>
    <circle cx="9.5" cy="20" r="1.5" fill="none" stroke="currentColor" stroke-width="2"/>
    <circle cx="17.5" cy="20" r="1.5" fill="none" stroke="currentColor" stroke-width="2"/>
  </symbol>

  <symbol id="icon-filter" viewBox="0 0 24 24">
    <path d="M4 5h16l-6.5 7.5V19l-3 1v-7.5L4 5z"
          fill="none" stroke="currentColor" stroke-width="2" stroke-linejoin="round"/>
  </symbol>

  <symbol id="icon-grid" viewBox="0 0 24 24">
    <path d="M4 4h7v7H4zM13 4h7v7h-7zM4 13h7v7H4zM13 13h7v7h-7z"
          fill="none" stroke="currentColor" stroke-width="2" stroke-linejoin="round"/>
  </symbol>

  <symbol id="icon-list" viewBox="0 0 24 24">
    <path d="M6 6h15M6 12h15M6 18h15" fill="none" stroke="currentColor" stroke-width="2" stroke-linecap="round"/>
    <path d="M3 6h.01M3 12h.01M3 18h.01" fill="none" stroke="currentColor" stroke-width="4" stroke-linecap="round"/>
  </symbol>

  <symbol id="icon-arrow-right" viewBox="0 0 24 24">
    <path d="M5 12h13" fill="none" stroke="currentColor" stroke-width="2" stroke-linecap="round"/>
    <path d="M13 6l6 6-6 6" fill="none" stroke="currentColor" stroke-width="2" stroke-linecap="round" stroke-linejoin="round"/>
  </symbol>

  <symbol id="icon-arrow-left" viewBox="0 0 24 24">
    <path d="M19 12H6" fill="none" stroke="currentColor" stroke-width="2" stroke-linecap="round"/>
    <path d="M11 6l-6 6 6 6" fill="none" stroke="currentColor" stroke-width="2" stroke-linecap="round" stroke-linejoin="round"/>
  </symbol>

  <symbol id="icon-arrow-up" viewBox="0 0 24 24">
    <path d="M12 19V6" fill="none" stroke="currentColor" stroke-width="2" stroke-linecap="round"/>
    <path d="M6 11l6-6 6 6" fill="none" stroke="currentColor" stroke-width="2" stroke-linecap="round" stroke-linejoin="round"/>
  </symbol>

  <symbol id="icon-bell" viewBox="0 0 24 24">
    <path d="M18 16H6c1.2-1.3 2-2.3 2-5a4 4 0 0 1 8 0c0 2.7.8 3.7 2 5z"
          fill="none" stroke="currentColor" stroke-width="2" stroke-linejoin="round"/>
    <path d="M10 18a2 2 0 0 0 4 0" fill="none" stroke="currentColor" stroke-width="2" stroke-linecap="round"/>
  </symbol>

  <symbol id="icon-check" viewBox="0 0 24 24">
    <path d="M20 6L9 17l-5-5" fill="none" stroke="currentColor" stroke-width="2" stroke-linecap="round" stroke-linejoin="round"/>
  </symbol>

  <symbol id="icon-link" viewBox="0 0 24 24">
    <path d="M10 13a5 5 0 0 1 0-7l1-1a5 5 0 0 1 7 7l-1 1" fill="none" stroke="currentColor" stroke-width="2" stroke-linecap="round"/>
    <path d="M14 11a5 5 0 0 1 0 7l-1 1a5 5 0 0 1-7-7l1-1" fill="none" stroke="currentColor" stroke-width="2" stroke-linecap="round"/>
  </symbol>

  <symbol id="icon-download" viewBox="0 0 24 24">
    <path d="M12 3v10" fill="none" stroke="currentColor" stroke-width="2" stroke-linecap="round"/>
    <path d="M7 10l5 5 5-5" fill="none" stroke="currentColor" stroke-width="2" stroke-linecap="round" stroke-linejoin="round"/>
    <path d="M5 20h14" fill="none" stroke="currentColor" stroke-width="2" stroke-linecap="round"/>
  </symbol>

  <symbol id="icon-trash" viewBox="0 0 24 24">
    <path d="M4 7h16" fill="none" stroke="currentColor" stroke-width="2" stroke-linecap="round"/>
    <path d="M9 7V5h6v2" fill="none" stroke="currentColor" stroke-width="2" stroke-linejoin="round"/>
    <path d="M7 7l1 14h8l1-14" fill="none" stroke="currentColor" stroke-width="2" stroke-linejoin="round"/>
    <path d="M10 11v6M14 11v6" fill="none" stroke="currentColor" stroke-width="2" stroke-linecap="round"/>
  </symbol>

  <symbol id="icon-grip-vertical" viewBox="0 0 24 24">
    <path d="M10 6h.01M14 6h.01M10 10h.01M14 10h.01M10 14h.01M14 14h.01M10 18h.01M14 18h.01"
          fill="none" stroke="currentColor" stroke-width="4" stroke-linecap="round"/>
  </symbol>

  <symbol id="icon-user" viewBox="0 0 24 24">
    <circle cx="12" cy="8.2" r="3.2" fill="none" stroke="currentColor" stroke-width="2"/>
    <path d="M5.5 20a6.5 6.5 0 0 1 13 0" fill="none" stroke="currentColor" stroke-width="2" stroke-linecap="round"/>
  </symbol>

  <symbol id="icon-envelope" viewBox="0 0 24 24">
    <path d="M4 6h16v12H4z" fill="none" stroke="currentColor" stroke-width="2" stroke-linejoin="round"/>
    <path d="M4 7l8 6 8-6" fill="none" stroke="currentColor" stroke-width="2" stroke-linejoin="round"/>
  </symbol>

  <symbol id="icon-phone" viewBox="0 0 24 24">
    <path d="M8 3h8l1 4-2 2c1 3.5 3.5 6 7 7l-2 2-4-1c-1.4 1.4-3.3 2.1-5.2 1.8-3-.5-6.1-3.6-6.6-6.6C4 12.3 4.6 10.4 6 9l-1-4 3-2z"
          fill="none" stroke="currentColor" stroke-width="2" stroke-linejoin="round"/>
  </symbol>

  <symbol id="icon-map-pin" viewBox="0 0 24 24">
    <path d="M12 21s6-5 6-10a6 6 0 1 0-12 0c0 5 6 10 6 10z"
          fill="none" stroke="currentColor" stroke-width="2" stroke-linejoin="round"/>
    <circle cx="12" cy="11" r="2" fill="none" stroke="currentColor" stroke-width="2"/>
  </symbol>

  <symbol id="icon-star-filled" viewBox="0 0 24 24">
    <path d="M12 2.5l2.8 6.2 6.7.6-5 4.4 1.5 6.5-6-3.6-6 3.6 1.5-6.5-5-4.4 6.7-.6L12 2.5z" fill="currentColor"/>
  </symbol>

  <symbol id="icon-shield" viewBox="0 0 24 24">
    <path d="M12 2l8 4v7c0 5.3-3.4 9.1-8 10-4.6-.9-8-4.7-8-10V6l8-4z"
          fill="none" stroke="currentColor" stroke-width="2" stroke-linejoin="round"/>
    <path d="M9 12l2 2 4-5" fill="none" stroke="currentColor" stroke-width="2" stroke-linecap="round" stroke-linejoin="round"/>
  </symbol>

  <symbol id="icon-truck" viewBox="0 0 24 24">
    <path d="M3 7h11v10H3z" fill="none" stroke="currentColor" stroke-width="2" stroke-linejoin="round"/>
    <path d="M14 10h4l3 3v4h-7z" fill="none" stroke="currentColor" stroke-width="2" stroke-linejoin="round"/>
    <circle cx="7" cy="18" r="1.5" fill="none" stroke="currentColor" stroke-width="2"/>
    <circle cx="18" cy="18" r="1.5" fill="none" stroke="currentColor" stroke-width="2"/>
  </symbol>

  <symbol id="icon-sync" viewBox="0 0 24 24">
    <path d="M20 12a8 8 0 0 0-14.9-4" fill="none" stroke="currentColor" stroke-width="2" stroke-linecap="round"/>
    <path d="M4 4v4h4" fill="none" stroke="currentColor" stroke-width="2" stroke-linecap="round" stroke-linejoin="round"/>
    <path d="M4 12a8 8 0 0 0 14.9 4" fill="none" stroke="currentColor" stroke-width="2" stroke-linecap="round"/>
    <path d="M20 20v-4h-4" fill="none" stroke="currentColor" stroke-width="2" stroke-linecap="round" stroke-linejoin="round"/>
  </symbol>

  <symbol id="icon-scale" viewBox="0 0 24 24">
    <path d="M12 3v18" fill="none" stroke="currentColor" stroke-width="2" stroke-linecap="round"/>
    <path d="M6 6h12" fill="none" stroke="currentColor" stroke-width="2" stroke-linecap="round"/>
    <path d="M6 6l-3 5h6l-3-5z" fill="none" stroke="currentColor" stroke-width="2" stroke-linejoin="round"/>
    <path d="M18 6l-3 5h6l-3-5z" fill="none" stroke="currentColor" stroke-width="2" stroke-linejoin="round"/>
    <path d="M8.5 21h7" fill="none" stroke="currentColor" stroke-width="2" stroke-linecap="round"/>
  </symbol>

  <symbol id="icon-receipt" viewBox="0 0 24 24">
    <path d="M6 2h12v20l-2-1-2 1-2-1-2 1-2-1-2 1V2z"
          fill="none" stroke="currentColor" stroke-width="2" stroke-linejoin="round"/>
    <path d="M8.5 7h7M8.5 11h7M8.5 15h5" fill="none" stroke="currentColor" stroke-width="2" stroke-linecap="round"/>
  </symbol>

  <symbol id="icon-box" viewBox="0 0 24 24">
    <path d="M3 7l9-4 9 4-9 4-9-4z" fill="none" stroke="currentColor" stroke-width="2" stroke-linejoin="round"/>
    <path d="M3 7v10l9 4 9-4V7" fill="none" stroke="currentColor" stroke-width="2" stroke-linejoin="round"/>
    <path d="M12 11v10" fill="none" stroke="currentColor" stroke-width="2" stroke-linecap="round"/>
  </symbol>

  <symbol id="icon-certificate" viewBox="0 0 24 24">
    <circle cx="12" cy="9" r="4" fill="none" stroke="currentColor" stroke-width="2"/>
    <path d="M10 13l-1 9 3-2 3 2-1-9" fill="none" stroke="currentColor" stroke-width="2" stroke-linejoin="round"/>
  </symbol>

  <symbol id="icon-gem" viewBox="0 0 24 24">
    <path d="M6 3h12l3 6-9 12L3 9l3-6z" fill="none" stroke="currentColor" stroke-width="2" stroke-linejoin="round"/>
    <path d="M6 3l6 18L18 3" fill="none" stroke="currentColor" stroke-width="2" stroke-linejoin="round"/>
    <path d="M3 9h18" fill="none" stroke="currentColor" stroke-width="2" stroke-linecap="round"/>
  </symbol>

  <symbol id="icon-users" viewBox="0 0 24 24">
    <circle cx="9" cy="8" r="3" fill="none" stroke="currentColor" stroke-width="2"/>
    <path d="M2.5 20a6.5 6.5 0 0 1 13 0" fill="none" stroke="currentColor" stroke-width="2" stroke-linecap="round"/>
    <circle cx="17" cy="9" r="2.5" fill="none" stroke="currentColor" stroke-width="2"/>
    <path d="M14.5 20a5.5 5.5 0 0 1 7 0" fill="none" stroke="currentColor" stroke-width="2" stroke-linecap="round"/>
  </symbol>

  <symbol id="icon-weibo" viewBox="0 0 24 24">
    <circle cx="9.2" cy="14.2" r="4.2" fill="none" stroke="currentColor" stroke-width="2"/>
    <path d="M15.5 6.5c2.6 0 4.7 2.1 4.7 4.7" fill="none" stroke="currentColor" stroke-width="2" stroke-linecap="round"/>
    <path d="M15.2 3.5c4.1 0 7.3 3.2 7.3 7.3" fill="none" stroke="currentColor" stroke-width="2" stroke-linecap="round" opacity="0.7"/>
    <path d="M14.8 12.8c1.1.6 1.7 1.4 1.7 2.4 0 2.4-3 4.3-6.7 4.3-3.7 0-6.7-1.9-6.7-4.3 0-1.7 1.5-3.2 3.7-3.9"
          fill="none" stroke="currentColor" stroke-width="2" stroke-linecap="round" opacity="0.9"/>
  </symbol>

  <symbol id="icon-bilibili" viewBox="0 0 24 24">
    <path d="M7 7l2-2h6l2 2" fill="none" stroke="currentColor" stroke-width="2" stroke-linecap="round"/>
    <path d="M6 9h12a3 3 0 0 1 3 3v4a3 3 0 0 1-3 3H6a3 3 0 0 1-3-3v-4a3 3 0 0 1 3-3z"
          fill="none" stroke="currentColor" stroke-width="2" stroke-linejoin="round"/>
    <path d="M9.5 13h.01M14.5 13h.01" fill="none" stroke="currentColor" stroke-width="4" stroke-linecap="round"/>
  </symbol>

  <symbol id="icon-weixin" viewBox="0 0 24 24">
    <path d="M9 19c-3.9 0-7-2.7-7-6 0-3.1 2.7-5.7 6.3-6" fill="none" stroke="currentColor" stroke-width="2" stroke-linecap="round"/>
    <path d="M12 20l-2.2-1.3" fill="none" stroke="currentColor" stroke-width="2" stroke-linecap="round"/>
    <path d="M14.5 19.5c3.9 0 7-2.7 7-6s-3.1-6-7-6-7 2.7-7 6 3.1 6 7 6z"
          fill="none" stroke="currentColor" stroke-width="2" stroke-linejoin="round"/>
    <path d="M12.5 12.5h.01M16.5 12.5h.01" fill="none" stroke="currentColor" stroke-width="4" stroke-linecap="round"/>
  </symbol>

  <symbol id="icon-alipay" viewBox="0 0 24 24">
    <path d="M4 6h16v12H4z" fill="none" stroke="currentColor" stroke-width="2" stroke-linejoin="round"/>
    <path d="M4 10h16" fill="none" stroke="currentColor" stroke-width="2" stroke-linecap="round"/>
    <path d="M8 14h4" fill="none" stroke="currentColor" stroke-width="2" stroke-linecap="round"/>
  </symbol>
</svg>
